<svg xmlns="http://www.w3.org/2000/svg" xmlns:xlink="http://www.w3.org/1999/xlink" width="144" zoomAndPan="magnify" viewBox="0 0 108 107.999999" height="144" preserveAspectRatio="xMidYMid meet" version="1.0"><defs><clipPath id="6ed8fc6112"><path d="M 6.261719 0 L 101.511719 0 L 101.511719 108 L 6.261719 108 Z M 6.261719 0 " clip-rule="nonzero"/></clipPath></defs><g clip-path="url(#6ed8fc6112)"><path fill="#ffffff" d="M 45.074219 1.445312 L 45.046875 2.890625 L 44.730469 2.917969 L 44.410156 2.949219 L 44.410156 6.851562 L 43.726562 6.851562 L 43.726562 5.773438 L 43.03125 5.773438 L 43.082031 5.335938 L 43.136719 4.894531 L 42.355469 4.894531 L 42.355469 3.914062 L 40.890625 3.914062 L 40.890625 2.945312 L 40.179688 2.917969 L 39.472656 2.890625 L 39.441406 2.574219 C 39.410156 2.261719 39.40625 2.261719 38.804688 2.234375 L 38.199219 2.203125 L 38.136719 1.46875 L 36.195312 1.46875 L 36.195312 0.679688 L 35.238281 0.707031 L 34.285156 0.738281 L 34.257812 1.097656 C 34.226562 1.441406 34.242188 1.457031 34.546875 1.488281 L 34.867188 1.519531 L 34.871094 2.203125 L 34.875 2.890625 L 35.191406 2.917969 L 35.507812 2.949219 L 35.507812 4.292969 L 35.828125 4.324219 C 36.144531 4.355469 36.144531 4.359375 36.175781 4.957031 C 36.203125 5.535156 36.214844 5.558594 36.492188 5.613281 C 36.773438 5.671875 36.78125 5.6875 36.78125 6.253906 L 36.78125 6.839844 L 37.097656 6.867188 L 37.417969 6.898438 L 37.417969 7.730469 L 37.421875 8.5625 L 37.6875 8.53125 C 38 8.492188 38.148438 8.773438 38.148438 9.398438 C 38.148438 9.746094 38.175781 9.785156 38.394531 9.785156 C 38.636719 9.785156 38.640625 9.796875 38.640625 10.566406 L 38.640625 11.351562 L 36.488281 11.351562 L 36.488281 12.035156 L 33.371094 12.035156 L 33.339844 12.351562 L 33.308594 12.671875 L 31.046875 12.695312 L 28.785156 12.722656 L 28.667969 13.308594 L 25.726562 13.308594 L 25.726562 13.84375 L 9.78125 13.84375 L 9.78125 13.207031 L 7.421875 13.207031 L 7.460938 15.214844 L 7.15625 15.246094 L 6.847656 15.277344 L 6.847656 18.394531 L 6.554688 18.394531 C 6.265625 18.394531 6.261719 18.398438 6.261719 18.929688 C 6.261719 19.464844 6.265625 19.46875 6.554688 19.46875 C 6.746094 19.46875 6.847656 19.519531 6.847656 19.613281 C 6.847656 19.730469 7.074219 19.761719 8.089844 19.785156 L 9.332031 19.8125 L 9.335938 20.152344 L 9.34375 20.496094 L 12.71875 20.550781 L 12.71875 21.132812 L 13.597656 21.132812 C 14.472656 21.132812 14.476562 21.132812 14.476562 21.375 C 14.476562 21.605469 14.511719 21.621094 14.96875 21.621094 L 15.457031 21.621094 L 15.457031 22.304688 L 18.292969 22.304688 L 18.292969 22.984375 L 20.199219 23.039062 L 20.207031 23.625 L 20.863281 23.65625 L 21.519531 23.683594 L 21.519531 24.359375 L 23.085938 24.359375 L 23.085938 24.949219 L 24.542969 24.949219 L 24.570312 25.3125 C 24.59375 25.597656 24.644531 25.679688 24.796875 25.6875 C 24.90625 25.691406 25.203125 25.703125 25.457031 25.714844 C 25.882812 25.730469 25.921875 25.75 25.921875 25.972656 C 25.921875 26.171875 25.972656 26.21875 26.167969 26.21875 C 26.375 26.21875 26.410156 26.265625 26.410156 26.511719 L 26.410156 26.804688 L 28.0625 26.804688 L 28.125 27.539062 L 28.707031 27.570312 C 29.332031 27.601562 29.476562 27.703125 29.394531 28.054688 C 29.34375 28.265625 29.367188 28.273438 30.03125 28.273438 L 30.714844 28.273438 L 30.714844 28.566406 C 30.714844 28.855469 30.722656 28.859375 31.253906 28.859375 L 31.792969 28.859375 L 31.792969 29.203125 C 31.792969 29.535156 31.800781 29.542969 32.183594 29.542969 C 32.566406 29.542969 32.574219 29.554688 32.574219 29.886719 L 32.574219 30.230469 L 33.847656 30.230469 L 33.847656 30.914062 L 34.921875 30.914062 L 34.921875 31.695312 L 35.605469 31.695312 C 36.273438 31.695312 36.292969 31.703125 36.292969 31.941406 C 36.292969 32.136719 36.339844 32.1875 36.535156 32.1875 C 36.742188 32.1875 36.78125 32.230469 36.78125 32.480469 C 36.78125 32.75 36.808594 32.773438 37.125 32.773438 C 37.457031 32.773438 37.464844 32.78125 37.464844 33.164062 L 37.464844 33.554688 L 38.640625 33.554688 L 38.640625 33.890625 C 38.640625 34.226562 38.644531 34.230469 39.105469 34.257812 C 39.550781 34.289062 39.570312 34.300781 39.597656 34.605469 C 39.625 34.886719 39.664062 34.925781 39.917969 34.925781 C 40.171875 34.925781 40.203125 34.960938 40.203125 35.21875 C 40.203125 35.488281 40.230469 35.511719 40.546875 35.511719 C 40.824219 35.511719 40.890625 35.550781 40.890625 35.707031 C 40.890625 35.859375 40.953125 35.902344 41.183594 35.902344 C 41.453125 35.902344 41.476562 35.929688 41.476562 36.246094 C 41.476562 36.558594 41.5 36.589844 41.765625 36.589844 C 42.027344 36.589844 42.054688 36.621094 42.082031 36.953125 L 42.113281 37.320312 L 44.363281 37.320312 L 44.390625 36.90625 L 44.421875 36.488281 L 45.878906 36.488281 L 45.878906 35.804688 L 47.542969 35.804688 L 47.542969 35.023438 L 49.300781 35.023438 L 49.300781 34.242188 L 50.671875 34.242188 L 50.671875 33.554688 L 52.335938 33.554688 L 52.335938 32.773438 L 53.800781 32.773438 L 53.800781 32.089844 L 55.171875 32.089844 L 55.171875 31.207031 L 56.707031 31.207031 L 56.699219 30.792969 L 56.6875 30.375 L 57.394531 30.410156 L 58.105469 30.445312 L 58.105469 29.527344 L 58.914062 29.558594 L 59.71875 29.589844 L 59.75 29.226562 C 59.777344 28.910156 59.8125 28.859375 60.019531 28.859375 C 60.21875 28.859375 60.257812 28.8125 60.257812 28.570312 C 60.257812 28.285156 60.265625 28.28125 60.867188 28.253906 C 61.480469 28.222656 61.480469 28.222656 61.511719 27.90625 C 61.539062 27.625 61.578125 27.589844 61.828125 27.589844 C 62.09375 27.589844 62.117188 27.558594 62.117188 27.246094 C 62.117188 26.921875 62.132812 26.902344 62.457031 26.902344 C 62.785156 26.902344 62.800781 26.886719 62.800781 26.5625 C 62.800781 26.234375 62.816406 26.21875 63.144531 26.21875 C 63.445312 26.21875 63.484375 26.1875 63.484375 25.972656 C 63.484375 25.753906 63.523438 25.730469 63.871094 25.730469 L 64.257812 25.730469 L 64.289062 25.117188 C 64.316406 24.507812 64.316406 24.507812 64.636719 24.476562 L 64.953125 24.445312 L 64.953125 23.089844 L 64.664062 23.089844 C 64.402344 23.089844 64.375 23.054688 64.347656 22.722656 C 64.320312 22.375 64.296875 22.351562 63.957031 22.324219 C 63.617188 22.296875 63.59375 22.273438 63.566406 21.933594 C 63.535156 21.59375 63.511719 21.570312 63.171875 21.542969 C 62.847656 21.515625 62.808594 21.484375 62.78125 21.199219 C 62.757812 20.941406 62.707031 20.882812 62.484375 20.855469 C 62.292969 20.835938 62.214844 20.769531 62.214844 20.636719 C 62.214844 20.5 62.144531 20.449219 61.96875 20.449219 C 61.753906 20.449219 61.726562 20.40625 61.726562 20.105469 C 61.726562 19.765625 61.722656 19.761719 61.285156 19.761719 C 60.847656 19.761719 60.84375 19.757812 60.84375 19.429688 C 60.84375 19.136719 60.808594 19.085938 60.550781 19.027344 C 60.292969 18.972656 60.257812 18.921875 60.257812 18.628906 L 60.257812 18.296875 L 59.183594 18.296875 L 59.183594 17.414062 L 58.105469 17.414062 L 58.105469 16.632812 L 56.933594 16.632812 L 56.933594 16.339844 C 56.933594 16.050781 56.925781 16.046875 56.398438 16.046875 L 55.867188 16.046875 L 55.835938 15.679688 C 55.8125 15.394531 55.761719 15.308594 55.609375 15.296875 C 55.503906 15.289062 55.359375 15.277344 55.292969 15.273438 C 55.222656 15.265625 55.171875 15.125 55.171875 14.921875 L 55.171875 14.578125 L 53.910156 14.578125 L 53.878906 14.210938 L 53.851562 13.84375 L 53.09375 13.878906 L 52.335938 13.910156 L 52.335938 13.558594 C 52.335938 13.234375 52.3125 13.207031 52.039062 13.207031 L 51.746094 13.207031 L 51.746094 12.578125 C 51.746094 11.964844 51.753906 11.949219 52.015625 11.917969 C 52.273438 11.890625 52.285156 11.863281 52.316406 11.277344 L 52.34375 10.664062 L 51.753906 10.664062 L 51.726562 9.46875 L 51.699219 8.269531 L 50.964844 8.207031 L 50.964844 6.265625 L 50.289062 6.265625 L 50.261719 5.652344 L 50.230469 5.039062 L 49.863281 5.011719 L 49.496094 4.980469 L 49.496094 3.914062 L 48.8125 3.914062 L 48.8125 3.433594 C 48.8125 2.960938 48.804688 2.949219 48.496094 2.917969 C 48.214844 2.894531 48.171875 2.851562 48.144531 2.570312 C 48.117188 2.28125 48.085938 2.253906 47.78125 2.253906 C 47.453125 2.253906 47.441406 2.242188 47.441406 1.863281 C 47.441406 1.480469 47.433594 1.46875 47.101562 1.46875 C 46.765625 1.46875 46.757812 1.460938 46.757812 1.078125 C 46.757812 0.695312 46.75 0.6875 46.417969 0.6875 C 46.089844 0.6875 46.074219 0.671875 46.074219 0.34375 L 46.074219 0.00390625 L 45.101562 0.00390625 Z M 33.355469 17.015625 L 33.355469 17.40625 L 32.890625 17.433594 L 32.429688 17.464844 L 32.398438 17.878906 C 32.367188 18.28125 32.355469 18.296875 32.03125 18.296875 L 31.695312 18.296875 L 31.695312 21.28125 L 32.0625 21.28125 L 32.429688 21.277344 L 32.429688 22.257812 L 32.867188 22.304688 C 33.296875 22.355469 33.308594 22.363281 33.339844 22.722656 L 33.371094 23.09375 L 34.804688 23.066406 L 36.242188 23.039062 L 36.253906 22.796875 C 36.261719 22.660156 36.273438 22.496094 36.28125 22.429688 C 36.289062 22.347656 36.46875 22.304688 36.824219 22.304688 L 37.359375 22.304688 L 37.386719 21.792969 L 37.417969 21.277344 L 37.785156 21.25 L 38.148438 21.21875 L 38.148438 18.296875 L 37.785156 18.296875 C 37.417969 18.296875 37.417969 18.296875 37.417969 17.878906 L 37.417969 17.464844 L 36.859375 17.433594 L 36.304688 17.40625 L 36.242188 16.679688 L 34.800781 16.65625 L 33.355469 16.628906 Z M 67.675781 19.058594 C 67.289062 19.089844 67.207031 19.230469 67.203125 19.835938 C 67.203125 20.132812 67.222656 20.152344 67.546875 20.152344 L 67.886719 20.152344 L 67.886719 22.304688 L 68.574219 22.304688 L 68.574219 24.640625 L 68.253906 24.671875 L 67.9375 24.703125 L 67.910156 25.511719 L 67.878906 26.316406 L 67.203125 26.316406 L 67.203125 27.589844 L 66.859375 27.589844 C 66.535156 27.589844 66.519531 27.605469 66.519531 27.929688 C 66.519531 28.269531 66.515625 28.273438 66.078125 28.273438 L 65.636719 28.273438 L 65.636719 29.542969 L 65.296875 29.542969 C 64.980469 29.542969 64.953125 29.566406 64.953125 29.839844 C 64.953125 30.097656 64.917969 30.132812 64.667969 30.132812 C 64.445312 30.132812 64.371094 30.179688 64.347656 30.351562 C 64.320312 30.539062 64.25 30.578125 63.859375 30.601562 C 63.441406 30.628906 63.398438 30.65625 63.371094 30.894531 C 63.347656 31.097656 63.28125 31.164062 63.074219 31.1875 C 62.871094 31.210938 62.804688 31.28125 62.78125 31.484375 C 62.757812 31.699219 62.695312 31.75 62.433594 31.777344 C 62.238281 31.796875 62.117188 31.859375 62.117188 31.949219 C 62.117188 32.039062 62.011719 32.089844 61.824219 32.089844 C 61.550781 32.089844 61.53125 32.117188 61.53125 32.429688 L 61.53125 32.773438 L 60.355469 32.773438 L 60.355469 33.554688 L 59.28125 33.554688 L 59.28125 34.242188 L 57.617188 34.242188 L 57.617188 35.023438 L 56.539062 35.023438 L 56.539062 35.707031 L 55.171875 35.707031 L 55.171875 36.488281 L 53.507812 36.488281 L 53.507812 37.265625 L 51.414062 37.320312 L 51.40625 38.007812 L 50.695312 38.035156 L 49.988281 38.0625 L 49.988281 38.851562 L 49.203125 38.78125 L 48.421875 38.714844 L 48.421875 39.523438 L 46.5625 39.523438 L 46.5625 40.207031 L 44.996094 40.207031 L 44.996094 40.890625 L 44.3125 40.890625 C 43.652344 40.890625 43.628906 40.902344 43.628906 41.128906 C 43.628906 41.328125 43.574219 41.375 43.308594 41.398438 L 42.992188 41.429688 L 42.992188 42.703125 L 43.359375 42.730469 L 43.726562 42.761719 L 43.726562 43.730469 L 44.042969 43.703125 L 44.363281 43.679688 L 44.390625 44.285156 C 44.417969 44.863281 44.433594 44.890625 44.683594 44.921875 C 44.933594 44.949219 44.949219 44.980469 44.933594 45.417969 L 44.917969 45.882812 L 45.585938 45.882812 L 45.585938 47.25 L 45.878906 47.25 C 46.15625 47.25 46.171875 47.273438 46.171875 47.640625 C 46.171875 47.96875 46.203125 48.03125 46.367188 48.03125 C 46.53125 48.03125 46.5625 48.097656 46.5625 48.425781 C 46.5625 48.804688 46.570312 48.816406 46.90625 48.816406 L 47.246094 48.816406 L 47.246094 49.648438 C 47.246094 50.46875 47.25 50.476562 47.492188 50.476562 C 47.710938 50.476562 47.738281 50.519531 47.738281 50.871094 C 47.738281 51.25 47.746094 51.261719 48.078125 51.261719 L 48.421875 51.261719 L 48.421875 52.039062 C 48.421875 52.804688 48.421875 52.8125 48.683594 52.84375 C 48.941406 52.875 48.945312 52.886719 48.921875 53.488281 C 48.898438 54.085938 48.902344 54.097656 49.148438 54.097656 C 49.386719 54.097656 49.398438 54.125 49.398438 54.636719 C 49.398438 55.167969 49.402344 55.175781 49.691406 55.175781 L 49.988281 55.175781 L 49.988281 56.738281 L 50.769531 56.738281 L 50.769531 58.304688 L 53.800781 58.304688 L 53.800781 57.972656 C 53.800781 57.671875 53.832031 57.640625 54.152344 57.589844 C 54.34375 57.558594 55.332031 57.558594 56.351562 57.589844 L 58.203125 57.648438 L 58.203125 56.835938 L 62.3125 56.835938 L 62.3125 56.054688 L 66.027344 56.054688 L 66.027344 55.175781 L 70.332031 55.175781 L 70.332031 54.390625 L 73.5625 54.390625 L 73.5625 53.609375 L 76.191406 53.609375 L 76.222656 53.242188 L 76.25 52.875 L 78.84375 52.820312 L 78.84375 52.042969 L 81.875 52.042969 L 81.875 51.261719 L 84.027344 51.261719 L 84.027344 50.917969 C 84.027344 50.660156 84.070312 50.574219 84.199219 50.570312 C 84.292969 50.570312 84.929688 50.570312 85.617188 50.574219 C 86.960938 50.585938 86.871094 50.621094 86.902344 50.085938 C 86.910156 49.980469 87.054688 49.933594 87.425781 49.910156 C 87.898438 49.882812 87.941406 49.863281 87.941406 49.640625 C 87.941406 49.40625 87.949219 49.402344 88.871094 49.402344 L 89.800781 49.402344 L 89.800781 48.699219 L 90.558594 48.734375 L 91.316406 48.765625 L 91.347656 48.398438 L 91.375 48.03125 L 93.222656 48.03125 L 93.222656 47.25 L 94.691406 47.25 L 94.691406 46.566406 L 96.058594 46.566406 L 96.058594 45.914062 L 96.597656 45.957031 L 97.136719 46.003906 L 97.136719 44.414062 L 96.550781 44.414062 L 96.550781 43.632812 C 96.550781 42.863281 96.546875 42.847656 96.304688 42.847656 L 96.058594 42.847656 L 96.058594 40.890625 L 95.277344 40.890625 L 95.277344 39.425781 L 94.59375 39.425781 L 94.59375 38.054688 L 93.90625 38.054688 L 93.90625 36.6875 L 93.621094 36.6875 C 93.34375 36.6875 93.332031 36.664062 93.300781 36.222656 C 93.273438 35.761719 93.269531 35.757812 92.90625 35.726562 C 92.558594 35.699219 92.539062 35.675781 92.539062 35.367188 C 92.539062 35.0625 92.511719 35.03125 92.21875 35.003906 C 91.902344 34.972656 91.902344 34.972656 91.875 34.363281 C 91.84375 33.757812 91.839844 33.75 91.554688 33.75 C 91.273438 33.75 91.265625 33.738281 91.265625 33.261719 L 91.265625 32.773438 L 90.492188 32.773438 L 90.464844 32.210938 C 90.4375 31.65625 90.433594 31.648438 90.117188 31.617188 C 89.804688 31.585938 89.800781 31.578125 89.800781 31.105469 L 89.800781 30.621094 L 89.40625 30.621094 C 89.058594 30.621094 89.015625 30.59375 89.015625 30.382812 C 89.015625 30.195312 88.960938 30.136719 88.746094 30.113281 C 88.535156 30.089844 88.472656 30.023438 88.449219 29.8125 C 88.421875 29.589844 88.371094 29.542969 88.128906 29.542969 C 87.867188 29.542969 87.84375 29.515625 87.84375 29.203125 C 87.84375 28.875 87.828125 28.859375 87.5 28.859375 C 87.183594 28.859375 87.160156 28.835938 87.160156 28.566406 C 87.160156 28.296875 87.132812 28.273438 86.816406 28.273438 C 86.480469 28.273438 86.472656 28.265625 86.472656 27.882812 C 86.472656 27.5 86.464844 27.492188 86.132812 27.492188 C 85.816406 27.492188 85.789062 27.46875 85.789062 27.195312 C 85.789062 26.9375 85.757812 26.902344 85.496094 26.902344 C 85.234375 26.902344 85.203125 26.871094 85.203125 26.609375 C 85.203125 26.347656 85.167969 26.316406 84.910156 26.316406 C 84.648438 26.316406 84.613281 26.285156 84.613281 26.023438 C 84.613281 25.746094 84.59375 25.730469 84.222656 25.730469 C 83.84375 25.730469 83.832031 25.722656 83.832031 25.390625 L 83.832031 25.054688 L 83.269531 25.027344 C 82.714844 24.996094 82.707031 24.992188 82.675781 24.679688 C 82.648438 24.367188 82.636719 24.359375 82.164062 24.359375 L 81.679688 24.359375 L 81.679688 23.675781 L 80.3125 23.675781 L 80.3125 22.992188 L 78.941406 22.992188 L 78.941406 22.304688 L 77.667969 22.304688 L 77.667969 21.628906 L 76.863281 21.601562 L 76.054688 21.574219 L 76.023438 21.207031 L 75.996094 20.839844 L 74.257812 20.839844 L 74.226562 20.519531 L 74.195312 20.203125 L 71.234375 20.148438 L 71.25 19.832031 L 71.261719 19.519531 L 69.859375 19.492188 C 68.578125 19.464844 68.449219 19.449219 68.40625 19.28125 C 68.351562 19.070312 68.179688 19.015625 67.675781 19.058594 M 16.140625 43.875 C 16.140625 44.203125 16.125 44.21875 15.796875 44.21875 L 15.457031 44.21875 L 15.457031 46.566406 L 15.796875 46.566406 C 16.125 46.566406 16.140625 46.582031 16.140625 46.90625 L 16.140625 47.25 L 17.316406 47.25 L 17.316406 48.03125 L 17.804688 48.03125 C 18.28125 48.03125 18.292969 48.039062 18.292969 48.324219 L 18.292969 48.613281 L 17.539062 48.640625 C 16.824219 48.667969 16.78125 48.683594 16.726562 48.914062 L 16.667969 49.15625 L 15.53125 49.128906 L 14.390625 49.097656 L 14.363281 49.46875 L 14.332031 49.84375 L 12.324219 49.898438 L 12.324219 50.476562 L 9.976562 50.476562 L 9.976562 51.261719 L 9.1875 51.261719 L 9.214844 52.066406 L 9.246094 52.875 L 9.554688 52.84375 C 9.832031 52.816406 9.871094 52.84375 9.898438 53.089844 C 9.921875 53.308594 9.984375 53.371094 10.199219 53.394531 C 10.421875 53.421875 10.46875 53.472656 10.46875 53.714844 C 10.46875 53.953125 10.425781 54 10.226562 54 C 10.023438 54 9.984375 54.050781 9.960938 54.367188 C 9.929688 54.714844 9.910156 54.734375 9.5625 54.765625 L 9.195312 54.792969 L 9.195312 56.738281 L 9.585938 56.738281 C 9.957031 56.738281 9.976562 56.757812 9.976562 57.027344 L 9.976562 57.320312 L 11.789062 57.375 L 11.789062 57.816406 C 11.789062 58.238281 11.777344 58.253906 11.496094 58.253906 C 11.214844 58.253906 11.199219 58.277344 11.171875 58.71875 L 11.140625 59.183594 L 11.933594 59.183594 L 11.933594 60.261719 L 13.058594 60.261719 C 14.117188 60.261719 14.183594 60.25 14.183594 60.066406 C 14.183594 59.90625 14.25 59.871094 14.527344 59.871094 L 14.867188 59.871094 L 14.867188 62.21875 L 15.210938 62.21875 C 15.539062 62.21875 15.554688 62.234375 15.554688 62.558594 L 15.554688 62.902344 L 17.707031 62.902344 L 17.707031 62.117188 L 20.238281 62.117188 L 20.269531 61.753906 L 20.296875 61.386719 L 22.253906 61.335938 L 24.210938 61.289062 L 24.210938 60.699219 L 25.652344 60.671875 L 27.097656 60.648438 L 27.097656 59.871094 L 30.03125 59.871094 L 30.03125 59.085938 L 32.269531 59.085938 L 32.300781 58.71875 L 32.328125 58.351562 L 33.1875 58.324219 L 34.042969 58.296875 L 34.042969 57.71875 L 38.347656 57.71875 L 38.347656 57.484375 C 38.347656 57.355469 38.410156 57.222656 38.492188 57.191406 C 38.601562 57.152344 38.640625 56.980469 38.640625 56.546875 L 38.640625 55.957031 L 37.953125 55.957031 L 37.953125 54.832031 C 37.953125 54.15625 37.992188 53.703125 38.050781 53.695312 C 38.105469 53.6875 38.25 53.675781 38.371094 53.667969 C 38.550781 53.660156 38.597656 53.59375 38.621094 53.289062 L 38.652344 52.925781 L 41.085938 52.925781 L 41.085938 53.609375 L 41.574219 53.609375 C 42.050781 53.609375 42.0625 53.617188 42.0625 53.902344 C 42.0625 54.183594 42.078125 54.195312 42.503906 54.195312 C 42.925781 54.195312 42.945312 54.207031 42.945312 54.488281 C 42.945312 54.765625 42.964844 54.78125 43.335938 54.78125 C 43.660156 54.78125 43.726562 54.816406 43.726562 54.976562 C 43.726562 55.136719 43.792969 55.175781 44.070312 55.175781 C 44.402344 55.175781 44.410156 55.183594 44.410156 55.566406 L 44.410156 55.957031 L 45.585938 55.957031 L 45.585938 56.632812 L 46.097656 56.660156 C 46.597656 56.6875 46.613281 56.699219 46.640625 57.007812 C 46.671875 57.324219 46.675781 57.324219 47.203125 57.324219 L 47.738281 57.324219 L 47.738281 55.957031 L 47.441406 55.957031 C 47.167969 55.957031 47.148438 55.933594 47.148438 55.566406 C 47.148438 55.214844 47.125 55.175781 46.90625 55.175781 C 46.664062 55.175781 46.660156 55.160156 46.660156 54.390625 L 46.660156 53.609375 L 46.074219 53.609375 L 46.074219 52.042969 L 45.78125 52.042969 C 45.503906 52.042969 45.488281 52.023438 45.488281 51.652344 C 45.488281 51.300781 45.460938 51.261719 45.242188 51.261719 C 45.023438 51.261719 44.996094 51.222656 44.996094 50.871094 C 44.996094 50.5 44.980469 50.476562 44.703125 50.476562 C 44.414062 50.476562 44.410156 50.472656 44.410156 49.941406 C 44.410156 49.386719 44.402344 49.378906 43.945312 49.378906 C 43.738281 49.375 43.726562 49.335938 43.726562 48.703125 L 43.726562 48.03125 L 43.382812 48.03125 C 43.050781 48.03125 43.042969 48.023438 43.042969 47.640625 L 43.042969 47.25 L 39.519531 47.25 L 39.519531 48.03125 L 36.292969 48.03125 L 36.292969 47.648438 C 36.292969 47.304688 36.261719 47.261719 36.035156 47.230469 L 35.777344 47.203125 L 35.792969 46.21875 C 35.816406 45.039062 35.777344 44.902344 35.402344 44.902344 C 35.246094 44.902344 35.113281 44.847656 35.105469 44.78125 C 35.101562 44.714844 35.085938 44.613281 35.074219 44.558594 C 35.058594 44.488281 35.042969 44.414062 35.035156 44.339844 C 35.023438 44.253906 34.808594 44.21875 34.335938 44.21875 L 33.652344 44.21875 L 33.652344 44.902344 L 31.695312 44.902344 L 31.695312 45.683594 L 29.445312 45.683594 L 29.445312 44.902344 L 27.683594 44.902344 L 27.683594 45.691406 L 25.945312 45.664062 L 24.210938 45.636719 L 24.148438 44.902344 L 20.054688 44.902344 L 20.054688 44.21875 L 17.414062 44.21875 L 17.414062 43.535156 L 16.140625 43.535156 Z M 23.085938 51.304688 C 23.085938 52.132812 23.089844 52.140625 23.332031 52.140625 C 23.542969 52.140625 23.574219 52.183594 23.574219 52.484375 L 23.574219 52.824219 L 22.304688 52.824219 L 22.304688 53.414062 L 21.128906 53.414062 L 21.128906 54.097656 L 19.464844 54.097656 L 19.464844 54.441406 C 19.464844 54.753906 19.488281 54.78125 19.761719 54.78125 C 19.957031 54.78125 20.054688 54.832031 20.054688 54.929688 C 20.054688 55.050781 20.242188 55.074219 21.179688 55.074219 L 22.304688 55.074219 L 22.304688 55.320312 C 22.304688 55.5625 22.304688 55.566406 23.234375 55.566406 L 24.160156 55.566406 L 24.160156 56.152344 L 25.921875 56.152344 L 25.921875 55.605469 C 25.921875 55.140625 25.894531 55.050781 25.726562 55.007812 C 25.554688 54.960938 25.53125 54.875 25.53125 54.28125 C 25.53125 53.910156 25.566406 53.613281 25.605469 53.621094 C 25.644531 53.625 26.0625 53.625 26.535156 53.621094 L 27.390625 53.609375 L 27.390625 52.824219 L 29.324219 52.824219 L 29.367188 52.480469 C 29.386719 52.289062 29.386719 52.113281 29.359375 52.089844 C 29.335938 52.0625 28.882812 52.042969 28.359375 52.042969 L 27.402344 52.042969 L 27.339844 51.308594 L 24.847656 51.253906 L 24.847656 50.925781 C 24.847656 50.550781 24.789062 50.527344 23.738281 50.488281 L 23.085938 50.464844 Z M 97.429688 50.871094 L 97.429688 51.261719 L 96.15625 51.261719 L 96.15625 52.042969 L 94.496094 52.042969 L 94.496094 52.820312 L 93.542969 52.847656 L 92.585938 52.875 L 92.554688 53.144531 C 92.527344 53.402344 92.5 53.414062 91.992188 53.414062 L 91.460938 53.414062 L 91.460938 54.097656 L 89.8125 54.097656 L 89.78125 54.367188 C 89.753906 54.621094 89.722656 54.636719 89.261719 54.636719 C 88.792969 54.636719 88.769531 54.648438 88.722656 54.929688 L 88.675781 55.222656 L 87.523438 55.25 L 86.375 55.277344 L 86.375 55.957031 L 84.710938 55.957031 L 84.710938 56.738281 L 82.757812 56.738281 L 82.757812 57.523438 L 79.722656 57.523438 L 79.722656 58.304688 L 78.414062 58.304688 C 77.003906 58.304688 76.984375 58.3125 76.984375 58.851562 L 76.984375 59.085938 L 74.246094 59.085938 L 74.246094 59.871094 L 70.039062 59.871094 L 70.039062 60.652344 L 65.832031 60.652344 L 65.832031 61.433594 L 60.074219 61.433594 L 60.042969 61.851562 L 60.011719 62.265625 L 54.09375 62.265625 L 54.09375 63 L 52.335938 63 L 52.335938 65.347656 L 53.117188 65.347656 L 53.117188 66.617188 C 53.117188 67.671875 53.140625 67.890625 53.261719 67.890625 C 53.378906 67.890625 53.410156 68.128906 53.433594 69.234375 L 53.460938 70.582031 L 53.824219 70.609375 L 54.191406 70.640625 L 54.191406 72.628906 C 54.191406 73.722656 54.21875 74.753906 54.253906 74.921875 C 54.3125 75.207031 54.34375 75.226562 54.742188 75.226562 L 55.164062 75.226562 L 55.191406 76.667969 L 55.21875 78.113281 L 62.359375 78.117188 C 66.289062 78.117188 70.304688 78.105469 71.285156 78.085938 L 73.070312 78.054688 L 73.070312 77.085938 L 80.789062 77.085938 L 80.820312 76.621094 L 80.847656 76.15625 L 83.023438 76.128906 L 85.203125 76.105469 L 85.203125 75.664062 C 85.203125 75.15625 85.058594 75.195312 86.792969 75.226562 L 87.941406 75.246094 L 87.941406 74.253906 L 89.675781 74.226562 L 91.414062 74.199219 L 91.445312 73.785156 L 91.472656 73.367188 L 93.40625 73.367188 L 93.46875 72.4375 L 95.570312 72.382812 L 95.570312 71.617188 L 96.328125 71.585938 L 97.085938 71.558594 L 97.148438 70.628906 L 98.996094 70.628906 L 98.996094 69.652344 L 100.265625 69.652344 L 100.265625 68.769531 L 101.046875 68.769531 L 101.046875 66.714844 L 101.734375 66.714844 L 101.734375 59.085938 L 101.046875 59.085938 L 101.046875 55.957031 L 100.265625 55.957031 L 100.265625 52.824219 L 99.582031 52.824219 L 99.582031 51.261719 L 99.289062 51.261719 C 99.011719 51.261719 98.996094 51.238281 98.996094 50.871094 L 98.996094 50.476562 L 97.429688 50.476562 Z M 97.992188 75.984375 L 97.234375 76.019531 L 97.234375 76.792969 L 96.695312 76.792969 C 96.164062 76.792969 96.15625 76.796875 96.15625 77.082031 L 96.15625 77.371094 L 95.253906 77.398438 L 94.347656 77.429688 L 94.410156 78.054688 L 93.5 78.085938 L 92.585938 78.113281 L 92.558594 78.429688 L 92.527344 78.75 L 90.386719 78.75 L 90.386719 79.433594 L 87.558594 79.433594 L 87.53125 79.898438 L 87.5 80.363281 L 85.570312 80.390625 L 83.636719 80.414062 L 83.636719 81.390625 L 77.964844 81.390625 L 77.964844 82.34375 L 75.6875 82.332031 C 74.4375 82.324219 69.308594 82.328125 64.292969 82.34375 L 55.171875 82.367188 L 55.171875 85.398438 C 55.171875 88.542969 55.179688 88.472656 54.816406 88.425781 C 54.640625 88.402344 54.585938 88.804688 54.585938 90.121094 L 54.585938 91.5625 L 59.964844 91.5625 L 59.964844 92.671875 L 63.117188 92.605469 C 64.855469 92.570312 69.101562 92.542969 72.558594 92.542969 L 78.84375 92.542969 L 78.84375 91.5625 L 84.710938 91.5625 L 84.710938 90.488281 L 88.527344 90.488281 L 88.527344 89.507812 L 91.363281 89.507812 L 91.363281 88.53125 L 93.320312 88.53125 L 93.320312 87.453125 L 94.300781 87.453125 L 94.300781 86.476562 L 95.167969 86.476562 L 95.199219 85.964844 L 95.226562 85.453125 L 95.691406 85.484375 L 96.15625 85.511719 L 96.15625 83.445312 L 97.136719 83.445312 L 97.136719 81.488281 L 98.015625 81.488281 L 98.015625 78.757812 L 98.480469 78.730469 L 98.945312 78.699219 L 98.945312 77.339844 C 98.945312 76.503906 98.90625 75.972656 98.847656 75.964844 C 98.792969 75.957031 98.410156 75.96875 97.992188 75.984375 M 10.859375 81.925781 L 10.859375 83.445312 L 11.738281 83.445312 L 11.738281 85.5 L 12.816406 85.5 L 12.816406 87.445312 L 13.28125 87.472656 L 13.742188 87.503906 L 13.773438 88.507812 L 13.800781 89.507812 L 14.769531 89.507812 L 14.769531 90.476562 L 15.234375 90.507812 L 15.699219 90.535156 L 15.730469 91.050781 L 15.757812 91.5625 L 16.726562 91.5625 L 16.726562 92.542969 L 17.609375 92.542969 L 17.609375 93.617188 L 18.683594 93.617188 L 18.683594 94.59375 L 19.5625 94.59375 L 19.5625 95.574219 L 20.542969 95.574219 L 20.542969 96.648438 L 21.519531 96.648438 L 21.519531 97.621094 L 22.472656 97.648438 L 23.429688 97.675781 L 23.457031 98.191406 L 23.488281 98.703125 L 24.457031 98.703125 L 24.457031 99.683594 L 26.117188 99.683594 L 26.117188 100.660156 L 28.066406 100.660156 L 28.09375 101.175781 L 28.125 101.6875 L 30.03125 101.742188 L 30.03125 102.714844 L 31.988281 102.714844 L 31.988281 103.691406 L 33.40625 103.691406 C 34.1875 103.691406 34.828125 103.726562 34.835938 103.765625 C 34.839844 103.804688 34.859375 104.015625 34.875 104.230469 C 34.890625 104.445312 34.910156 104.65625 34.914062 104.695312 C 34.917969 104.734375 35.582031 104.769531 36.390625 104.769531 L 37.855469 104.769531 L 37.855469 105.746094 L 42.648438 105.746094 L 42.648438 106.824219 L 45.585938 106.824219 L 45.585938 105.734375 L 46.515625 105.796875 L 46.542969 105.28125 L 46.574219 104.769531 L 47.542969 104.769531 L 47.542969 103.691406 L 48.519531 103.691406 L 48.519531 102.714844 L 49.496094 102.714844 L 49.496094 100.660156 L 49.9375 100.660156 C 50.179688 100.660156 50.382812 100.628906 50.390625 100.585938 C 50.398438 100.546875 50.410156 100.328125 50.417969 100.097656 L 50.433594 99.683594 L 38.835938 99.683594 L 38.835938 98.605469 L 34.921875 98.605469 L 34.921875 97.628906 L 31.988281 97.628906 L 31.988281 96.648438 L 29.933594 96.648438 L 29.933594 95.574219 L 27 95.574219 L 27 94.59375 L 26.019531 94.59375 L 26.019531 93.507812 L 24.847656 93.578125 L 23.671875 93.644531 L 23.671875 92.542969 L 22.5 92.542969 L 22.5 91.5625 L 20.652344 91.5625 L 20.621094 91.050781 L 20.589844 90.535156 L 20.125 90.507812 L 19.664062 90.476562 L 19.664062 89.507812 L 18.683594 89.507812 L 18.683594 89.019531 C 18.683594 88.625 18.652344 88.527344 18.511719 88.515625 C 18.417969 88.507812 18.296875 88.492188 18.242188 88.476562 C 18.191406 88.464844 18.046875 88.449219 17.925781 88.445312 C 17.730469 88.433594 17.707031 88.382812 17.707031 87.945312 L 17.707031 87.453125 L 16.726562 87.453125 L 16.726562 86.476562 L 15.757812 86.476562 L 15.730469 85.960938 L 15.699219 85.449219 L 15.234375 85.417969 L 14.769531 85.390625 L 14.769531 84.421875 L 13.792969 84.421875 L 13.792969 83.347656 L 12.816406 83.347656 L 12.816406 82.367188 L 11.835938 82.367188 L 11.835938 80.410156 L 10.859375 80.410156 Z M 88.746094 93.601562 C 88.554688 93.628906 88.527344 93.6875 88.527344 94.113281 L 88.527344 94.59375 L 85.59375 94.59375 L 85.59375 95.570312 L 84.148438 95.59375 L 82.707031 95.621094 L 82.695312 96.015625 C 82.691406 96.230469 82.679688 96.460938 82.671875 96.527344 C 82.660156 96.621094 82.027344 96.648438 79.871094 96.648438 L 77.082031 96.648438 L 77.082031 97.628906 L 65.539062 97.628906 L 65.539062 96.652344 L 61.796875 96.625 L 58.058594 96.601562 L 57.996094 95.570312 L 56.121094 95.597656 L 54.242188 95.621094 L 54.1875 97.628906 L 53.3125 97.628906 L 53.3125 100.660156 L 52.335938 100.660156 L 52.335938 102.714844 L 51.355469 102.714844 L 51.355469 104.769531 L 50.378906 104.769531 L 50.378906 105.734375 L 49.449219 105.796875 L 49.417969 106.308594 C 49.394531 106.742188 49.359375 106.824219 49.199219 106.824219 C 49.035156 106.824219 49.007812 106.890625 49.007812 107.296875 L 49.007812 107.769531 L 50.351562 107.859375 C 51.953125 107.964844 59.734375 107.945312 60.992188 107.832031 L 61.871094 107.753906 L 61.808594 106.824219 L 68.375 106.824219 L 68.375 105.746094 L 72.972656 105.746094 L 72.972656 104.769531 L 75.910156 104.769531 L 75.910156 103.691406 L 77.765625 103.691406 L 77.765625 102.714844 L 79.722656 102.714844 L 79.722656 101.738281 L 81.671875 101.738281 L 81.699219 101.222656 L 81.730469 100.710938 L 82.683594 100.679688 L 83.636719 100.652344 L 83.636719 99.683594 L 84.613281 99.683594 L 84.613281 98.703125 L 85.582031 98.703125 L 85.613281 98.191406 L 85.640625 97.675781 L 86.597656 97.648438 L 87.550781 97.621094 L 87.550781 96.648438 L 88.515625 96.648438 L 88.546875 96.136719 L 88.578125 95.621094 L 89.042969 95.59375 L 89.507812 95.5625 L 89.507812 94.59375 L 90.484375 94.59375 L 90.484375 93.632812 L 89.726562 93.601562 C 89.308594 93.582031 88.867188 93.582031 88.746094 93.601562 " fill-opacity="1" fill-rule="evenodd"/></g></svg>